<?xml version="1.0" encoding="UTF-8" standalone="no"?>
<!DOCTYPE svg PUBLIC "-//W3C//DTD SVG 1.1//EN" "http://www.w3.org/Graphics/SVG/1.1/DTD/svg11.dtd">
<svg version="1.1" xmlns="http://www.w3.org/2000/svg" xmlns:xlink="http://www.w3.org/1999/xlink" preserveAspectRatio="xMidYMid meet" viewBox="0 0 64 64" width="32" height="32"><defs><path d="M36.93 0.01L36.99 0.01L37.05 0.03L37.11 0.04L37.16 0.06L37.22 0.08L37.27 0.1L37.32 0.13L37.37 0.16L37.42 0.19L37.47 0.22L37.51 0.26L37.56 0.3L37.6 0.34L37.64 0.39L37.68 0.43L37.72 0.48L37.76 0.53L37.8 0.59L37.83 0.64L37.87 0.7L37.9 0.76L37.94 0.82L37.97 0.88L38 0.95L38.03 1.01L38.06 1.08L38.09 1.15L38.12 1.22L38.15 1.29L38.18 1.37L38.21 1.44L38.24 1.52L38.26 1.6L38.29 1.68L38.32 1.76L38.35 1.84L38.37 1.92L38.4 2L39.78 7.19L40.22 7.33L41.18 7.67L42.12 8.04L43.04 8.46L43.95 8.9L44.02 8.94L48.69 6.24L48.76 6.2L48.84 6.16L48.92 6.13L48.99 6.09L49.07 6.05L49.14 6.02L49.22 5.98L49.29 5.95L49.36 5.92L49.43 5.89L49.51 5.86L49.58 5.83L49.65 5.8L49.71 5.78L49.78 5.76L49.85 5.74L49.92 5.72L49.98 5.7L50.05 5.68L50.11 5.67L50.18 5.66L50.24 5.65L50.3 5.64L50.37 5.64L50.43 5.64L50.49 5.64L50.55 5.64L50.6 5.65L50.66 5.65L50.72 5.67L50.77 5.68L50.83 5.7L50.88 5.72L50.93 5.74L50.99 5.77L51.04 5.8L51.09 5.84L51.14 5.87L51.19 5.91L51.23 5.96L58.02 12.75L58.07 12.8L58.11 12.84L58.15 12.89L58.18 12.94L58.21 13L58.24 13.05L58.27 13.1L58.29 13.16L58.31 13.22L58.33 13.27L58.34 13.33L58.35 13.39L58.36 13.45L58.36 13.51L58.36 13.57L58.36 13.64L58.36 13.7L58.36 13.76L58.35 13.83L58.34 13.89L58.33 13.96L58.31 14.03L58.3 14.09L58.28 14.16L58.26 14.23L58.23 14.3L58.21 14.37L58.18 14.44L58.15 14.51L58.12 14.58L58.09 14.65L58.06 14.72L58.02 14.79L57.99 14.86L57.95 14.93L57.91 15.01L57.87 15.08L57.83 15.15L57.78 15.22L57.74 15.29L55.04 19.95L55.1 20.05L55.54 20.96L55.96 21.88L56.33 22.82L56.67 23.78L56.81 24.22L62 25.6L62.08 25.62L62.16 25.64L62.24 25.66L62.32 25.68L62.4 25.71L62.48 25.73L62.56 25.75L62.63 25.78L62.71 25.81L62.78 25.83L62.85 25.86L62.92 25.89L62.99 25.92L63.05 25.95L63.12 25.99L63.18 26.02L63.24 26.05L63.3 26.09L63.36 26.13L63.41 26.16L63.47 26.2L63.52 26.24L63.57 26.29L63.61 26.33L63.66 26.37L63.7 26.42L63.74 26.47L63.78 26.51L63.81 26.56L63.84 26.61L63.87 26.67L63.9 26.72L63.92 26.77L63.94 26.83L63.96 26.89L63.97 26.95L63.99 27.01L63.99 27.07L64 27.13L64 27.2L64 36.8L64 36.87L63.99 36.93L63.99 36.99L63.97 37.05L63.96 37.11L63.94 37.16L63.92 37.22L63.9 37.27L63.87 37.32L63.84 37.37L63.81 37.42L63.78 37.47L63.74 37.51L63.7 37.56L63.66 37.6L63.61 37.64L63.57 37.68L63.52 37.72L63.47 37.76L63.41 37.8L63.36 37.83L63.3 37.87L63.24 37.9L63.18 37.94L63.12 37.97L63.05 38L62.99 38.03L62.92 38.06L62.85 38.09L62.78 38.12L62.71 38.15L62.63 38.18L62.56 38.21L62.48 38.24L62.4 38.26L62.32 38.29L62.24 38.32L62.16 38.35L62.08 38.37L62 38.4L56.81 39.78L56.67 40.22L56.33 41.18L55.96 42.12L55.54 43.04L55.1 43.95L55.05 44.04L57.74 48.69L57.78 48.76L57.83 48.83L57.87 48.9L57.91 48.98L57.95 49.05L57.99 49.12L58.02 49.19L58.06 49.26L58.09 49.33L58.12 49.4L58.15 49.47L58.18 49.54L58.21 49.61L58.23 49.68L58.26 49.75L58.28 49.82L58.3 49.89L58.31 49.95L58.33 50.02L58.34 50.09L58.35 50.15L58.36 50.22L58.36 50.28L58.36 50.34L58.36 50.41L58.36 50.47L58.36 50.53L58.35 50.59L58.34 50.65L58.33 50.71L58.31 50.76L58.29 50.82L58.27 50.88L58.24 50.93L58.21 50.98L58.18 51.04L58.15 51.09L58.11 51.14L58.07 51.19L58.02 51.23L51.23 58.02L51.19 58.07L51.14 58.11L51.09 58.15L51.04 58.18L50.99 58.21L50.93 58.24L50.88 58.26L50.83 58.28L50.77 58.3L50.72 58.31L50.66 58.33L50.6 58.34L50.55 58.34L50.49 58.34L50.43 58.35L50.37 58.34L50.3 58.34L50.24 58.33L50.18 58.32L50.11 58.31L50.05 58.3L49.98 58.28L49.92 58.27L49.85 58.25L49.78 58.22L49.71 58.2L49.65 58.18L49.58 58.15L49.51 58.12L49.43 58.09L49.36 58.06L49.29 58.03L49.22 58L49.14 57.96L49.07 57.93L48.99 57.89L48.92 57.85L48.84 57.82L48.76 57.78L48.69 57.74L44.04 55.05L43.95 55.1L43.04 55.54L42.12 55.96L41.18 56.33L40.22 56.67L39.78 56.81L38.4 62L38.37 62.08L38.35 62.16L38.32 62.24L38.29 62.32L38.26 62.4L38.24 62.48L38.21 62.56L38.18 62.63L38.15 62.71L38.12 62.78L38.09 62.85L38.06 62.92L38.03 62.99L38 63.05L37.97 63.12L37.94 63.18L37.9 63.24L37.87 63.3L37.83 63.36L37.8 63.41L37.76 63.47L37.72 63.52L37.68 63.57L37.64 63.61L37.6 63.66L37.56 63.7L37.51 63.74L37.47 63.78L37.42 63.81L37.37 63.84L37.32 63.87L37.27 63.9L37.22 63.92L37.16 63.94L37.11 63.96L37.05 63.97L36.99 63.99L36.93 63.99L36.87 64L36.8 64L27.2 64L27.13 64L27.07 63.99L27.01 63.99L26.95 63.97L26.89 63.96L26.83 63.94L26.77 63.92L26.72 63.9L26.67 63.87L26.61 63.84L26.56 63.81L26.51 63.78L26.47 63.74L26.42 63.7L26.37 63.66L26.33 63.61L26.29 63.57L26.24 63.52L26.2 63.47L26.16 63.41L26.13 63.36L26.09 63.3L26.05 63.24L26.02 63.18L25.99 63.12L25.95 63.05L25.92 62.99L25.89 62.92L25.86 62.85L25.83 62.78L25.81 62.71L25.78 62.63L25.75 62.56L25.73 62.48L25.71 62.4L25.68 62.32L25.66 62.24L25.64 62.16L25.62 62.08L25.6 62L24.22 56.81L23.78 56.67L22.82 56.33L21.88 55.96L20.96 55.54L20.05 55.1L19.94 55.04L15.31 57.72L15.24 57.76L15.17 57.81L15.1 57.85L15.02 57.89L14.95 57.93L14.88 57.97L14.81 58L14.74 58.04L14.67 58.07L14.6 58.1L14.53 58.13L14.46 58.16L14.39 58.19L14.32 58.21L14.25 58.24L14.18 58.26L14.11 58.28L14.05 58.29L13.98 58.31L13.91 58.32L13.85 58.33L13.78 58.34L13.72 58.34L13.66 58.35L13.59 58.35L13.53 58.34L13.47 58.34L13.41 58.33L13.35 58.32L13.29 58.31L13.24 58.29L13.18 58.27L13.12 58.25L13.07 58.22L13.02 58.19L12.96 58.16L12.91 58.13L12.86 58.09L12.81 58.05L12.77 58L5.98 51.21L5.93 51.17L5.89 51.12L5.85 51.07L5.82 51.02L5.79 50.97L5.76 50.92L5.74 50.86L5.72 50.81L5.7 50.75L5.69 50.7L5.67 50.64L5.66 50.58L5.66 50.53L5.66 50.47L5.65 50.41L5.66 50.35L5.66 50.28L5.67 50.22L5.68 50.16L5.69 50.09L5.7 50.03L5.72 49.96L5.73 49.9L5.75 49.83L5.78 49.76L5.8 49.7L5.82 49.63L5.85 49.56L5.88 49.49L5.91 49.41L5.94 49.34L5.97 49.27L6 49.2L6.04 49.12L6.07 49.05L6.11 48.97L6.15 48.9L6.18 48.82L6.22 48.75L6.26 48.67L8.95 44.03L8.9 43.95L8.46 43.04L8.04 42.12L7.67 41.18L7.33 40.22L7.19 39.78L2 38.4L1.92 38.37L1.84 38.35L1.76 38.32L1.68 38.29L1.6 38.26L1.52 38.24L1.44 38.21L1.37 38.18L1.29 38.15L1.22 38.12L1.15 38.09L1.08 38.06L1.01 38.03L0.95 38L0.88 37.97L0.82 37.94L0.76 37.9L0.7 37.87L0.64 37.83L0.59 37.8L0.53 37.76L0.48 37.72L0.43 37.68L0.39 37.64L0.34 37.6L0.3 37.56L0.26 37.51L0.22 37.47L0.19 37.42L0.16 37.37L0.13 37.32L0.1 37.27L0.08 37.22L0.06 37.16L0.04 37.11L0.03 37.05L0.01 36.99L0.01 36.93L0 36.87L0 36.8L0 27.2L0 27.13L0.01 27.07L0.01 27.01L0.03 26.95L0.04 26.89L0.06 26.83L0.08 26.77L0.1 26.72L0.13 26.67L0.16 26.61L0.19 26.56L0.22 26.51L0.26 26.47L0.3 26.42L0.34 26.37L0.39 26.33L0.43 26.29L0.48 26.24L0.53 26.2L0.59 26.16L0.64 26.13L0.7 26.09L0.76 26.05L0.82 26.02L0.88 25.99L0.95 25.95L1.01 25.92L1.08 25.89L1.15 25.86L1.22 25.83L1.29 25.81L1.37 25.78L1.44 25.75L1.52 25.73L1.6 25.71L1.68 25.68L1.76 25.66L1.84 25.64L1.92 25.62L2 25.6L7.19 24.22L7.33 23.78L7.67 22.82L8.04 21.88L8.46 20.96L8.9 20.05L8.95 19.96L6.26 15.31L6.22 15.24L6.18 15.16L6.15 15.08L6.11 15.01L6.07 14.93L6.04 14.86L6 14.78L5.97 14.71L5.94 14.64L5.91 14.57L5.88 14.49L5.85 14.42L5.82 14.35L5.8 14.29L5.78 14.22L5.75 14.15L5.73 14.08L5.72 14.02L5.7 13.95L5.69 13.89L5.68 13.82L5.67 13.76L5.66 13.7L5.66 13.63L5.65 13.57L5.66 13.51L5.66 13.45L5.66 13.4L5.67 13.34L5.69 13.28L5.7 13.23L5.72 13.17L5.74 13.12L5.76 13.07L5.79 13.01L5.82 12.96L5.85 12.91L5.89 12.86L5.93 12.81L5.98 12.77L12.77 5.98L12.81 5.93L12.86 5.89L12.91 5.85L12.96 5.82L13.02 5.79L13.07 5.76L13.12 5.73L13.18 5.71L13.24 5.69L13.29 5.67L13.35 5.66L13.41 5.65L13.47 5.64L13.53 5.64L13.59 5.64L13.66 5.64L13.72 5.64L13.78 5.64L13.85 5.65L13.91 5.66L13.98 5.67L14.05 5.69L14.11 5.7L14.18 5.72L14.25 5.74L14.32 5.77L14.39 5.79L14.46 5.82L14.53 5.85L14.6 5.88L14.67 5.91L14.74 5.94L14.81 5.98L14.88 6.01L14.95 6.05L15.02 6.09L15.1 6.13L15.17 6.17L15.24 6.22L15.31 6.26L19.96 8.95L20.05 8.9L20.96 8.46L21.88 8.04L22.82 7.67L23.78 7.33L24.22 7.19L25.6 2L25.62 1.92L25.64 1.84L25.66 1.76L25.68 1.68L25.71 1.6L25.73 1.52L25.75 1.44L25.78 1.37L25.81 1.29L25.83 1.22L25.86 1.15L25.89 1.08L25.92 1.01L25.95 0.95L25.99 0.88L26.02 0.82L26.05 0.76L26.09 0.7L26.13 0.64L26.16 0.59L26.2 0.53L26.24 0.48L26.29 0.43L26.33 0.39L26.37 0.34L26.42 0.3L26.47 0.26L26.51 0.22L26.56 0.19L26.61 0.16L26.67 0.13L26.72 0.1L26.77 0.08L26.83 0.06L26.89 0.04L26.95 0.03L27.01 0.01L27.07 0.01L27.13 0L27.2 0L36.8 0L36.87 0L36.93 0.01ZM30.85 18.05L30.29 18.1L29.73 18.18L29.18 18.28L28.64 18.41L28.1 18.55L27.57 18.71L27.06 18.9L26.55 19.1L26.05 19.32L25.57 19.56L25.09 19.82L24.63 20.1L24.17 20.39L23.73 20.7L23.3 21.03L22.89 21.37L22.49 21.73L22.1 22.1L21.73 22.49L21.37 22.89L21.03 23.3L20.7 23.73L20.39 24.17L20.1 24.63L19.82 25.09L19.56 25.57L19.32 26.05L19.1 26.55L18.9 27.06L18.71 27.57L18.55 28.1L18.41 28.64L18.28 29.18L18.18 29.73L18.1 30.29L18.05 30.85L18.01 31.42L18 32L18.01 32.58L18.05 33.15L18.1 33.71L18.18 34.27L18.28 34.82L18.41 35.36L18.55 35.9L18.71 36.43L18.9 36.94L19.1 37.45L19.32 37.95L19.56 38.43L19.82 38.91L20.1 39.37L20.39 39.83L20.7 40.27L21.03 40.7L21.37 41.11L21.73 41.51L22.1 41.9L22.49 42.27L22.89 42.63L23.3 42.97L23.73 43.3L24.17 43.61L24.63 43.9L25.09 44.18L25.57 44.44L26.05 44.68L26.55 44.9L27.06 45.1L27.57 45.29L28.1 45.45L28.64 45.59L29.18 45.72L29.73 45.82L30.29 45.9L30.85 45.95L31.42 45.99L32 46L32.58 45.99L33.15 45.95L33.71 45.9L34.27 45.82L34.82 45.72L35.36 45.59L35.9 45.45L36.43 45.29L36.94 45.1L37.45 44.9L37.95 44.68L38.43 44.44L38.91 44.18L39.37 43.9L39.83 43.61L40.27 43.3L40.7 42.97L41.11 42.63L41.51 42.27L41.9 41.9L42.27 41.51L42.63 41.11L42.97 40.7L43.3 40.27L43.61 39.83L43.9 39.37L44.18 38.91L44.44 38.43L44.68 37.95L44.9 37.45L45.1 36.94L45.29 36.43L45.45 35.9L45.59 35.36L45.72 34.82L45.82 34.27L45.9 33.71L45.95 33.15L45.99 32.58L46 32L45.99 31.42L45.95 30.85L45.9 30.29L45.82 29.73L45.72 29.18L45.59 28.64L45.45 28.1L45.29 27.57L45.1 27.06L44.9 26.55L44.68 26.05L44.44 25.57L44.18 25.09L43.9 24.63L43.61 24.17L43.3 23.73L42.97 23.3L42.63 22.89L42.27 22.49L41.9 22.1L41.51 21.73L41.11 21.37L40.7 21.03L40.27 20.7L39.83 20.39L39.37 20.1L38.91 19.82L38.43 19.56L37.95 19.32L37.45 19.1L36.94 18.9L36.43 18.71L35.9 18.55L35.36 18.41L34.82 18.28L34.27 18.18L33.71 18.1L33.15 18.05L32.58 18.01L32 18L31.42 18.01L30.85 18.05Z" id="a1eOTe3QkH"></path></defs><g><g><g><use xlink:href="#a1eOTe3QkH" opacity="1" fill="#ffffff" fill-opacity="1"></use></g></g></g></svg>